# xmcd
#
# Track frame offsets:
#	150
#	12979
#	26068
#	42000
#	57761
#	74886
#	89138
#	100751
#	116890
#	131045
#	146619
#
# Disc length: 2150 seconds
#
# Revision: 1
# Processed by: cddbd v1.5.2PL0 Copyright (c) Steve Scherf et al.
# Submitted via: audiograbber 1.83.01
#
DISCID=a408640b
DTITLE=Various Artist - Country Music Number 1 Hits Disc 1
DYEAR=2014
DGENRE=Country
TTITLE0=Freddy Fender - Wasted Days and Wasted Nights (Live)
TTITLE1=Lynn Anderson - Rose Garden
TTITLE2=Juice Newton - Hurt
TTITLE3=B.J. Thomas - Another Somebody Done Somebody Worng Song
TTITLE4=Johnny Lee - Lookin' For Love
TTITLE5=T.G. Sheppard - Do You Wanna Go To Heaven
TTITLE6=Donna Fargp - The happiest Girl In The Whole USA
TTITLE7=Exile - She's Too Good To Be True
TTITLE8=T. Graham Brown - Hell and High Water
TTITLE9=Doug Stone - A Jukebox With A Country Song
TTITLE10=Don Gibson - Woman
EXTD=
EXTT0=
EXTT1=
EXTT2=
EXTT3=
EXTT4=
EXTT5=
EXTT6=
EXTT7=
EXTT8=
EXTT9=
EXTT10=
PLAYORDER=
